<svg width="292" height="292" viewBox="0 0 292 292" xmlns="http://www.w3.org/2000/svg" xmlns:xlink="http://www.w3.org/1999/xlink"><title>Untitled 2</title><defs><circle id="a" cx="138.01" cy="138.01" r="138.01"/></defs><g transform="translate(8 8)" fill="none" fill-rule="evenodd"><circle stroke="#FFF" stroke-width="15" cx="138.01" cy="138.01" r="138.01"/><mask id="b" fill="#fff"><use xlink:href="#a"/></mask><path d="M228 228.75c0-37.5-67.5-30-67.5-60 0 0 22.5-22.5 22.5-63.75 0-24.792-20.208-45-45-45s-45 20.208-45 45c0 41.25 22.5 63.75 22.5 63.75 0 30-67.5 22.5-67.5 60v7.5c0 2.083 1.667 5.75 3.75 5.75 0 0 16.402 13.11 35.868 21.454C104.058 270.5 122.685 273 135.46 273c15.47 0 39.02-3.467 57.982-11.55 17.32-7.386 30.808-19.45 30.808-19.45 2.083 0 3.75-3.667 3.75-5.75v-7.5z" fill="#FFF" mask="url(#b)"/><path d="M283 231.875c0-27.083-48.75-21.667-48.75-43.333 0 0 16.25-16.25 16.25-46.042 0-17.905-14.595-32.5-32.5-32.5s-32.5 14.595-32.5 32.5c0 29.792 16.25 46.042 16.25 46.042 0 21.666-48.75 16.25-48.75 43.333v5.417c0 1.504 1.204 2.708 2.708 2.708h124.584c1.504 0 2.708-1.204 2.708-2.708v-5.417zM123 231.875c0-27.083-48.75-21.667-48.75-43.333 0 0 16.25-16.25 16.25-46.042 0-17.905-14.595-32.5-32.5-32.5s-32.5 14.595-32.5 32.5c0 29.792 16.25 46.042 16.25 46.042 0 21.666-48.75 16.25-48.75 43.333v5.417C-7 238.796-5.796 240-4.292 240h124.584c1.504 0 2.708-1.204 2.708-2.708v-5.417z" fill="#FFF" mask="url(#b)"/></g></svg>