<?xml version="1.0" encoding="UTF-8" standalone="no"?>
<svg width="20px" height="21px" viewBox="0 0 20 21" version="1.1" xmlns="http://www.w3.org/2000/svg" xmlns:xlink="http://www.w3.org/1999/xlink" xmlns:sketch="http://www.bohemiancoding.com/sketch/ns">
    <!-- Generator: Sketch 3.4.4 (17249) - http://www.bohemiancoding.com/sketch -->
    <title>Slice 1</title>
    <desc>Created with Sketch.</desc>
    <defs></defs>
    <g id="Page-1" stroke="none" stroke-width="1" fill="none" fill-rule="evenodd" sketch:type="MSPage">
        <g id="icon-signout-hover" sketch:type="MSLayerGroup" fill="#0DFFCD">
            <path d="M15,12 L15,9.5 L10,9.5 L10,7 L15,7 L15,4.5 L20,8.25 L15,12 L15,12 Z M12.5,10.75 L13.75,10.75 L13.75,15.75 C13.737,16.102 13.613,16.395 13.38,16.63 C13.145,16.863 12.852,16.987 12.5,17 L7.5,17 L7.5,20.75 L0.684,17.352 C0.474,17.234 0.309,17.078 0.186,16.882 C0.062,16.688 0,16.467 0,16.22 L0,2 C0.013,1.648 0.137,1.355 0.37,1.12 C0.606,0.888 0.9,0.764 1.25,0.75 L12.5,0.75 C12.852,0.763 13.145,0.887 13.38,1.12 C13.613,1.355 13.737,1.648 13.75,2 L13.75,5.75 L12.5,5.75 L12.5,2 L2.5,2 L7.5,4.5 L7.5,15.75 L12.5,15.75 L12.5,10.75 L12.5,10.75 Z" id="Shape" sketch:type="MSShapeGroup"></path>
        </g>
    </g>
</svg>